<svg width="14" height="14" viewBox="0 0 14 14" fill="none" xmlns="http://www.w3.org/2000/svg">
    <path d="M0.292893 10.7908C0.105356 10.9784 0 11.2327 0 11.498V13C0 13.5523 0.447715 14 1 14H2.50205C2.76726 14 3.02162 13.8946 3.20916 13.7071L10.8102 6.10608C11.2007 5.71555 11.2007 5.08239 10.8102 4.69187L9.30814 3.18982C8.91761 2.79929 8.28445 2.79929 7.89392 3.18982L0.292893 10.7908ZM13.7725 3.14373C14.0758 2.84044 14.0758 2.35051 13.7725 2.04722L11.9528 0.227468C11.6495 -0.0758228 11.1596 -0.0758228 10.8563 0.227468L10.1402 0.943497C9.74972 1.33402 9.74972 1.96719 10.1402 2.35771L11.6423 3.85976C12.0328 4.25028 12.666 4.25028 13.0565 3.85976L13.7725 3.14373Z" fill="#748BAC"/>
</svg>
